<?xml version="1.0"?>
<svg xmlns="http://www.w3.org/2000/svg" id="Layer" enable-background="new 0 0 64 64" height="512px" viewBox="0 0 64 64" width="512px" class=""><g><path d="m32 10c12.15 0 22 9.85 22 22s-9.85 22-22 22-22-9.85-22-22 9.85-22 22-22zm10 22c0-.55-.45-1-1-1s-1 .45-1 1 .45 1 1 1 1-.45 1-1zm-9 0c0-.55-.45-1-1-1s-1 .45-1 1 .45 1 1 1 1-.45 1-1zm-9 0c0-.55-.45-1-1-1s-1 .45-1 1 .45 1 1 1 1-.45 1-1z" fill="#4dd0e1" data-original="#4DD0E1" class="" style="fill:#A200FF" data-old_color="#4dd0e1"/><g fill="#012e52"><path d="m32 8c-13.233 0-24 10.767-24 24s10.767 24 24 24 24-10.767 24-24-10.767-24-24-24zm0 44c-11.028 0-20-8.972-20-20s8.972-20 20-20 20 8.972 20 20-8.972 20-20 20z" data-original="#012E52" class="active-path" data-old_color="#012E52" style="fill:#000000"/><path d="m32 29c-1.654 0-3 1.346-3 3s1.346 3 3 3 3-1.346 3-3-1.346-3-3-3z" data-original="#012E52" class="active-path" data-old_color="#012E52" style="fill:#000000"/><path d="m23 29c-1.654 0-3 1.346-3 3s1.346 3 3 3 3-1.346 3-3-1.346-3-3-3z" data-original="#012E52" class="active-path" data-old_color="#012E52" style="fill:#000000"/><path d="m41 29c-1.654 0-3 1.346-3 3s1.346 3 3 3 3-1.346 3-3-1.346-3-3-3z" data-original="#012E52" class="active-path" data-old_color="#012E52" style="fill:#000000"/></g></g> </svg>
